HIERARCHY
ROOT root
{
	OFFSET	0	13.1	24.9
	CHANNELS 6  Xposition Yposition Zposition Xrotation Yrotation Zrotation
	JOINT spine_1
	{
		OFFSET	0	9.99999	0
		CHANNELS 3  Xrotation Yrotation Zrotation
		JOINT spine_2
		{
			OFFSET	0	112	-10
			CHANNELS 3  Xrotation Yrotation Zrotation
			JOINT spine_3
			{
				OFFSET	0	206.5	19.3
				CHANNELS 3  Xrotation Yrotation Zrotation
				JOINT spine_4
				{
					OFFSET	0	110.4	14.6
					CHANNELS 3  Xrotation Yrotation Zrotation
					JOINT neck_1
					{
						OFFSET	0	71.8	-50.3
						CHANNELS 3  Xrotation Yrotation Zrotation
						JOINT neck_2
						{
							OFFSET	0	86.2	-25.8
							CHANNELS 3  Xrotation Yrotation Zrotation
							JOINT head_ee
							{
								OFFSET	0	179.8	-8.7
								CHANNELS 3  Xrotation Yrotation Zrotation
								End Site
								{
									OFFSET	1	0	0
								}
							}
						}
					}
					JOINT left_clavicle
					{
						OFFSET	-43.2	22.4	-70.8
						CHANNELS 3  Xrotation Yrotation Zrotation
						JOINT left_shoulder
						{
							OFFSET	-93.9	-5.79999	48.7
							CHANNELS 3  Xrotation Yrotation Zrotation
							JOINT left_elbow
							{
								OFFSET	-291.4	-30.8	15.2
								CHANNELS 3  Xrotation Yrotation Zrotation
								JOINT left_lowarm_twist
								{
									OFFSET	-110.7	-3.89999	13.6
									CHANNELS 3  Xrotation Yrotation Zrotation
									JOINT left_hand
									{
										OFFSET	-110.7	-3.89999	13.6
										CHANNELS 3  Xrotation Yrotation Zrotation
										JOINT left_ee
										{
											OFFSET	-80.8	-5.10001	12.1
											CHANNELS 3  Xrotation Yrotation Zrotation
											End Site
											{
												OFFSET	1	0	0
											}
										}
									}
								}
							}
						}
					}
					JOINT right_clavicle
					{
						OFFSET	43.2	22.4	-70.8
						CHANNELS 3  Xrotation Yrotation Zrotation
						JOINT right_shoulder
						{
							OFFSET	93.9	-5.79999	48.7
							CHANNELS 3  Xrotation Yrotation Zrotation
							JOINT right_elbow
							{
								OFFSET	291.4	-30.8	15.2
								CHANNELS 3  Xrotation Yrotation Zrotation
								JOINT right_lowarm_twist
								{
									OFFSET	110.7	-3.89999	13.6
									CHANNELS 3  Xrotation Yrotation Zrotation
									JOINT right_hand
									{
										OFFSET	110.7	-3.89999	13.6
										CHANNELS 3  Xrotation Yrotation Zrotation
										JOINT right_ee
										{
											OFFSET	80.8	-5.10001	12.1
											CHANNELS 3  Xrotation Yrotation Zrotation
											End Site
											{
												OFFSET	1	0	0
											}
										}
									}
								}
							}
						}
					}
				}
			}
		}
	}
	JOINT left_hip
	{
		OFFSET	-82.8	-127.5	0.300001
		CHANNELS 3  Xrotation Yrotation Zrotation
		JOINT left_knee
		{
			OFFSET	-28.2	-396.7	2.2
			CHANNELS 3  Xrotation Yrotation Zrotation
			JOINT left_ankle
			{
				OFFSET	-11.7	-411.3	35.4
				CHANNELS 3  Xrotation Yrotation Zrotation
				JOINT left_toes
				{
					OFFSET	0	-60	-88.6
					CHANNELS 3  Xrotation Yrotation Zrotation
					JOINT left_foot_ee
					{
						OFFSET	-22.5	-16.5	-42.2
						CHANNELS 3  Xrotation Yrotation Zrotation
						End Site
						{
							OFFSET	1	0	0
						}
					}
				}
			}
		}
	}
	JOINT right_hip
	{
		OFFSET	82.8	-127.5	0.300001
		CHANNELS 3  Xrotation Yrotation Zrotation
		JOINT right_knee
		{
			OFFSET	28.2	-396.7	2.2
			CHANNELS 3  Xrotation Yrotation Zrotation
			JOINT right_ankle
			{
				OFFSET	11.7	-411.3	35.4
				CHANNELS 3  Xrotation Yrotation Zrotation
				JOINT right_toes
				{
					OFFSET	0	-60	-88.6
					CHANNELS 3  Xrotation Yrotation Zrotation
					JOINT right_foot_ee
					{
						OFFSET	22.5	-16.5	-42.2
						CHANNELS 3  Xrotation Yrotation Zrotation
						End Site
						{
							OFFSET	1	0	0
						}
					}
				}
			}
		}
	}
}
MOTION
Frames: 11
Frame Time: 0.02
391.555 721.904 -1204.45 -176.76366427 -69.9070921486 -179.035333946 0.474991 0.3313 -0.674531 0.475167 0.373549 -0.652084 0.47086 0.497669 -0.563098 0.470644 0.402495 -0.634627 -12.8586 9.68577 8.43931 -12.7641 13.1172 10.8937 -0.0 0.0 -0.0 6.11944 7.94527 11.8518 -11.3865 -6.75968 66.5564 0.818168 -22.0624 0.159501 0.937461 0.0320862 -0.11543 -0.614499 8.12777 -0.597484 -0.0 0.0 -0.0 5.66477 -3.19889 -11.0129 -5.24169 22.9751 -62.0275 0.460365 12.8469 -0.0518293 7.50261 -0.203289 0.936129 -0.36393 -3.66641 0.865159 0.0 0.0 0.0 18.7262 64.958 -17.2047 -2.56379 0.0970381 0.381459 -3.69113 -28.2235 0.679846 29.4559 -0.0 -0.0 -0.0 0.0 -0.0 -2.21789 -6.01356 5.81042 5.49106 0.264745 0.800505 10.3462 -9.02694 1.46914 -7.84259 0.0 0.0 0.0 0.0 0.0 
403.157025262 721.623 -1203.33763368 -178.224801973 -74.7098710541 179.770398114 0.652886 0.433505 -0.926119 0.653229 0.491556 -0.89666 0.645441 0.660335 -0.780763 0.64498 0.528746 -0.875246 -13.7941 7.28147 7.83157 -13.679 9.0762 9.68202 -0.0 0.0 -0.0 5.7228 11.63 11.0871 -12.7928 -5.51763 67.2001 0.735864 -20.0281 0.12994 1.16345 0.0395377 -0.143332 -1.00287 11.605 -1.57426 -0.0 0.0 -0.0 3.66584 0.510192 -7.04026 -3.22736 24.2453 -65.235 0.564504 15.6232 -0.0774446 8.38724 -0.21913 1.04802 -0.254518 -4.21824 -0.0901826 0.0 0.0 0.0 18.8851 62.7645 -16.7081 -4.9966 0.173236 0.74702 -0.761914 -28.3666 0.13952 28.6396 -0.0 -0.0 -0.0 0.0 -0.0 -4.11401 -5.8473 5.7942 3.1691 0.143417 0.465055 10.6083 -7.21772 1.50476 -7.77527 0.0 0.0 0.0 0.0 0.0 
406.594264464 718.613 -1206.08899768 -178.09041391 -74.8034345315 -179.999466537 0.545131 0.471116 -0.886662 0.545414 0.52658 -0.85489 0.537441 0.687715 -0.731557 0.537138 0.563553 -0.830983 -13.8124 7.13602 7.13782 -13.7289 9.22858 8.98412 -0.0 0.0 -0.0 5.59084 12.1347 10.8512 -13.0545 -5.30439 67.233 0.724653 -19.7467 0.126127 1.13076 0.0384668 -0.139294 -0.987027 11.4987 -1.52061 -0.0 0.0 -0.0 3.76206 0.828637 -7.20979 -2.97642 24.1496 -64.5611 0.566556 15.6772 -0.0779981 8.43147 -0.219877 1.05362 -0.273174 -4.28253 0.00550573 0.0 0.0 0.0 18.2694 62.4324 -15.9974 -5.14379 0.177347 0.769234 -0.8151 -28.4274 0.1494 28.6882 -0.0 -0.0 -0.0 0.0 -0.0 -4.29677 -5.86199 5.81026 3.10424 0.140224 0.455617 10.6825 -6.43972 1.51526 -7.75137 0.0 0.0 0.0 0.0 0.0 
406.622223363 718.613 -1205.80814916 -178.212825555 -73.7350531588 179.873364189 0.545131 0.471116 -0.886662 0.545414 0.52658 -0.85489 0.537441 0.687715 -0.731557 0.537138 0.563553 -0.830983 -13.8124 7.13602 7.13782 -13.7289 9.22858 8.98412 -0.0 0.0 -0.0 5.59084 12.1347 10.8512 -13.0545 -5.30439 67.233 0.724653 -19.7467 0.126127 1.13076 0.0384668 -0.139294 -0.987027 11.4987 -1.52061 -0.0 0.0 -0.0 3.76206 0.828637 -7.20979 -2.97642 24.1496 -64.5611 0.566556 15.6772 -0.0779981 8.43147 -0.219877 1.05362 -0.273174 -4.28253 0.00550573 0.0 0.0 0.0 18.2694 62.4324 -15.9974 -5.14379 0.177347 0.769234 -0.8151 -28.4274 0.1494 28.6882 -0.0 -0.0 -0.0 0.0 -0.0 -4.29677 -5.86199 5.81026 3.10424 0.140224 0.455617 10.6825 -6.43972 1.51526 -7.75137 0.0 0.0 0.0 0.0 0.0 
406.637442787 718.613 -1205.62716123 -178.283330852 -73.0474916759 179.799790602 0.545131 0.471116 -0.886662 0.545414 0.52658 -0.85489 0.537441 0.687715 -0.731557 0.537138 0.563553 -0.830983 -13.8124 7.13602 7.13782 -13.7289 9.22858 8.98412 -0.0 0.0 -0.0 5.59084 12.1347 10.8512 -13.0545 -5.30439 67.233 0.724653 -19.7467 0.126127 1.13076 0.0384668 -0.139294 -0.987027 11.4987 -1.52061 -0.0 0.0 -0.0 3.76206 0.828637 -7.20979 -2.97642 24.1496 -64.5611 0.566556 15.6772 -0.0779981 8.43147 -0.219877 1.05362 -0.273174 -4.28253 0.00550573 0.0 0.0 0.0 18.2694 62.4324 -15.9974 -5.14379 0.177347 0.769234 -0.8151 -28.4274 0.1494 28.6882 -0.0 -0.0 -0.0 0.0 -0.0 -4.29677 -5.86199 5.81026 3.10424 0.140224 0.455617 10.6825 -6.43972 1.51526 -7.75137 0.0 0.0 0.0 0.0 0.0 
406.640263467 718.613 -1205.59044515 -178.296923453 -72.9080883861 179.785575255 0.545131 0.471116 -0.886662 0.545414 0.52658 -0.85489 0.537441 0.687715 -0.731557 0.537138 0.563553 -0.830983 -13.8124 7.13602 7.13782 -13.7289 9.22858 8.98412 -0.0 0.0 -0.0 5.59084 12.1347 10.8512 -13.0545 -5.30439 67.233 0.724653 -19.7467 0.126127 1.13076 0.0384668 -0.139294 -0.987027 11.4987 -1.52061 -0.0 0.0 -0.0 3.76206 0.828637 -7.20979 -2.97642 24.1496 -64.5611 0.566556 15.6772 -0.0779981 8.43147 -0.219877 1.05362 -0.273174 -4.28253 0.00550573 0.0 0.0 0.0 18.2694 62.4324 -15.9974 -5.14379 0.177347 0.769234 -0.8151 -28.4274 0.1494 28.6882 -0.0 -0.0 -0.0 0.0 -0.0 -4.29677 -5.86199 5.81026 3.10424 0.140224 0.455617 10.6825 -6.43972 1.51526 -7.75137 0.0 0.0 0.0 0.0 0.0 
406.644778016 718.613 -1205.52906831 -178.319144097 -72.6751080239 179.762313338 0.545131 0.471116 -0.886662 0.545414 0.52658 -0.85489 0.537441 0.687715 -0.731557 0.537138 0.563553 -0.830983 -13.8124 7.13602 7.13782 -13.7289 9.22858 8.98412 -0.0 0.0 -0.0 5.59084 12.1347 10.8512 -13.0545 -5.30439 67.233 0.724653 -19.7467 0.126127 1.13076 0.0384668 -0.139294 -0.987027 11.4987 -1.52061 -0.0 0.0 -0.0 3.76206 0.828637 -7.20979 -2.97642 24.1496 -64.5611 0.566556 15.6772 -0.0779981 8.43147 -0.219877 1.05362 -0.273174 -4.28253 0.00550573 0.0 0.0 0.0 18.2694 62.4324 -15.9974 -5.14379 0.177347 0.769234 -0.8151 -28.4274 0.1494 28.6882 -0.0 -0.0 -0.0 0.0 -0.0 -4.29677 -5.86199 5.81026 3.10424 0.140224 0.455617 10.6825 -6.43972 1.51526 -7.75137 0.0 0.0 0.0 0.0 0.0 
405.135656661 719.001 -1227.00040961 85.7954395948 -73.5245743649 87.943053657 -7.40158 -0.587816 -3.3826 -7.39529 -0.37151 -3.4131 -7.3572 0.789198 -3.34141 -7.37269 0.251906 -3.424 3.2797 -6.20446 3.21143 3.54065 -13.5335 3.20132 -0.0 0.0 -0.0 7.03922 -3.24914 13.6507 3.18589 -25.3626 74.2611 0.51018 -14.1835 0.063472 4.75658 0.143138 -0.590537 -2.05224 22.5217 -2.89846 -0.0 0.0 -0.0 -3.7025 2.39778 7.6357 10.587 15.6775 -70.13 0.969863 25.6611 -0.220897 -18.7503 1.0235 -2.1574 -2.02385 -3.45727 12.0099 0.0 0.0 0.0 -8.2746 -9.47273 -3.99049 -16.1651 0.321589 2.45164 14.6527 -3.27562 -2.08409 12.0337 -0.0 -0.0 -0.0 0.0 -0.0 -19.5159 -53.6008 5.74463 1.61857 0.0700277 0.238491 -3.73412 13.7905 -0.595641 -33.5077 0.0 0.0 0.0 0.0 0.0 
425.012465182 712.123 -1228.0403999 82.2684632734 -73.1605821697 82.9587674476 -7.35817 -0.47504 -3.14034 -7.35273 -0.274352 -3.16417 -7.32424 0.795919 -3.07478 -7.3373 0.300582 -3.16179 6.14847 -0.340145 7.37576 6.42283 -7.11074 8.56876 -0.0 0.0 -0.0 6.56962 -3.9362 12.6831 2.91911 -23.8787 74.9455 0.347837 -9.77673 0.0297491 1.74439 0.0581874 -0.21519 -1.83128 25.8775 -0.0245443 -0.0 0.0 -0.0 -2.95877 2.81035 6.21488 6.95095 13.3427 -69.3047 1.30544 32.8883 -0.385321 -20.4538 1.1505 -2.33479 -2.79395 -1.77281 18.1299 0.0 0.0 0.0 -9.35347 -7.4967 -2.35855 -16.7949 0.320028 2.54826 18.4577 -3.59941 -2.58379 12.3199 -0.0 -0.0 -0.0 0.0 -0.0 -22.1485 -55.471 5.9584 7.39039 0.374061 1.07114 -10.5519 17.1584 -1.7495 -38.7715 0.0 0.0 0.0 0.0 0.0 
429.996759263 715.542 -1232.84132385 81.1722987864 -72.8880235644 81.1602450974 -7.33134 -0.343182 -2.78546 -7.32704 -0.165311 -2.80164 -7.30884 0.777133 -2.69685 -7.31883 0.341638 -2.78565 4.75561 -0.437463 7.36562 5.01908 -7.17622 8.39699 -0.0 0.0 -0.0 6.51531 -2.85267 12.5952 1.58518 -23.8327 74.3267 0.431237 -12.0586 0.0455481 1.43053 0.0482023 -0.176345 -1.57896 26.8698 1.83329 -0.0 0.0 -0.0 -2.29214 2.37932 4.81435 5.78716 12.2036 -67.9269 1.33401 33.4563 -0.400953 -20.3484 1.14249 -2.32393 -2.71691 -2.31721 17.3187 0.0 0.0 0.0 -10.1941 -8.65542 -1.08438 -16.0947 0.321697 2.44085 15.5572 -2.31946 -2.19752 13.6901 -0.0 -0.0 -0.0 0.0 -0.0 -21.059 -54.2953 7.5371 6.60796 0.327938 0.960083 -14.102 18.2692 -2.37065 -39.084 0.0 0.0 0.0 0.0 0.0 
458.121045274 713.517 -1255.88120245 106.721704057 -73.4677088204 106.70338988 -7.29532 -0.168461 -2.55339 -7.29169 -0.00569532 -2.55893 -7.28361 0.845792 -2.41521 -7.29147 0.453869 -2.51839 1.74593 -0.998057 7.95318 2.03806 -8.4336 8.6827 -0.0 0.0 -0.0 9.39628 -12.5507 18.4532 -4.66212 -21.1805 66.61 0.546102 -15.1377 0.0725638 2.82899 0.0910498 -0.349829 -0.802765 29.0479 6.99323 -0.0 0.0 -0.0 1.00998 -0.68573 -2.01525 6.18687 9.38857 -61.5115 1.3299 33.375 -0.398689 -23.2473 1.37005 -2.61736 -2.36013 -14.8256 8.60823 0.0 0.0 0.0 -12.9396 1.13387 1.322 -8.32421 0.252182 1.2515 13.0401 -3.91765 -1.87132 13.2108 -0.0 -0.0 -0.0 0.0 -0.0 -8.40545 -34.8185 14.8973 -18.1462 -0.313096 -2.75547 -16.4158 22.9157 -2.89383 -40.0722 0.0 0.0 0.0 0.0 0.0 
